<?xml version="1.0" standalone="no"?>
<!DOCTYPE svg PUBLIC "-//W3C//DTD SVG 20010904//EN"
 "http://www.w3.org/TR/2001/REC-SVG-20010904/DTD/svg10.dtd">
<svg version="1.0" xmlns="http://www.w3.org/2000/svg"
 width="400.000000pt" height="400.000000pt" viewBox="0 0 400.000000 400.000000"
 preserveAspectRatio="xMidYMid meet">
<metadata>
Created by potrace 1.11, written by Peter Selinger 2001-2013
</metadata>
<g transform="translate(0.000000,400.000000) scale(0.100000,-0.100000)"
fill="#000000" stroke="none">
<path d="M2418 3015 c-2 -2 -19 -6 -39 -9 -179 -28 -344 -184 -394 -372 -16
-60 -21 -196 -9 -229 7 -16 2 -17 -62 -12 -73 7 -88 10 -196 32 -75 16 -235
73 -313 112 -139 70 -283 178 -407 307 l-78 79 -23 -54 c-85 -192 -42 -415
107 -565 l65 -64 -47 6 c-26 3 -75 17 -109 30 l-63 23 0 -37 c0 -102 65 -244
149 -327 67 -66 106 -91 185 -120 76 -28 60 -38 -60 -38 -52 0 -94 -2 -94 -4
0 -19 77 -146 110 -180 89 -95 242 -169 338 -164 31 1 28 -4 -21 -38 -174
-120 -376 -181 -585 -178 -61 1 -112 -1 -112 -5 0 -15 267 -138 353 -162 240
-69 512 -80 748 -31 643 134 1116 719 1134 1403 l3 92 44 34 c53 41 165 162
192 206 l18 32 -32 -17 c-18 -9 -39 -18 -48 -21 -10 -2 -53 -13 -97 -24 -44
-11 -83 -20 -87 -20 -5 0 23 30 60 68 62 61 109 133 126 189 6 20 1 19 -71
-17 -68 -33 -115 -49 -222 -79 -18 -5 -32 1 -60 27 -83 76 -199 122 -321 127
-43 2 -80 2 -82 0z"/>
</g>
</svg>
